<svg width="14" height="14" viewBox="0 0 14 14" fill="none" xmlns="http://www.w3.org/2000/svg">
<path d="M7.11399 4.66636L7.43798 5.42418C7.45995 5.49008 7.52035 5.52852 7.58076 5.53401L8.40448 5.61089C8.58021 5.62737 8.6461 5.84153 8.5198 5.95685L7.89927 6.50051C7.84984 6.54444 7.82788 6.61034 7.84435 6.67075L8.02557 7.47799C8.06401 7.64823 7.88279 7.78002 7.72903 7.69216L7.02063 7.26931C6.96572 7.23637 6.89433 7.23637 6.83941 7.26931L6.13101 7.69216C5.98274 7.78002 5.79603 7.64823 5.83447 7.47799L6.01569 6.67075C6.03217 6.61034 6.0102 6.54444 5.96078 6.50051L5.34024 5.95685C5.20845 5.84153 5.27984 5.62737 5.45556 5.61089L6.27928 5.53401C6.34518 5.52852 6.4001 5.49008 6.42755 5.42967L6.75155 4.67185C6.81745 4.50711 7.0426 4.50711 7.11399 4.66636Z" stroke="#F0C932" stroke-width="0.549146" stroke-miterlimit="10" stroke-linecap="round" stroke-linejoin="round"/>
<path d="M10.6655 6.27243C10.6797 4.21009 9.01932 2.52673 6.95698 2.51254C4.89464 2.49834 3.21128 4.1587 3.19709 6.22103C3.18289 8.28337 4.84324 9.96674 6.90558 9.98093C8.96792 9.99512 10.6513 8.33477 10.6655 6.27243Z" stroke="#F0C932" stroke-width="0.549146" stroke-miterlimit="10" stroke-linecap="round" stroke-linejoin="round"/>
<path d="M6.42202 9.94366L5.49396 12.2775L4.31879 10.9321L2.54504 11.0969L3.72022 8.15344" stroke="#F0C932" stroke-width="0.549146" stroke-miterlimit="10" stroke-linecap="round" stroke-linejoin="round"/>
<path d="M7.4325 9.94367L8.36604 12.2775L9.53573 10.9321L11.315 11.0969L10.1343 8.15346" stroke="#F0C932" stroke-width="0.549146" stroke-miterlimit="10" stroke-linecap="round" stroke-linejoin="round"/>
</svg>
