<svg width="16" height="24" viewBox="0 0 16 24" fill="none" xmlns="http://www.w3.org/2000/svg">
<rect width="16" height="24" fill="#F5F5F5"/>
<g filter="url(#filter0_d_0_1)">
<g filter="url(#filter1_d_0_1)">
<rect x="-26" y="-3" width="593.078" height="32.9488" fill="white"/>
</g>
</g>
<path d="M15.1137 0H0.0924215C0.0414151 0 0 0.0680869 0 0.152081V23.8018C0 23.8858 0.0414151 23.9539 0.0924215 23.9539H15.1137C15.1647 23.9539 15.2059 23.8858 15.2059 23.8018V0.152081C15.2059 0.0680869 15.1647 0 15.1137 0Z" fill="#545BE8"/>
<path d="M4.01886 5.27161V18.6824" stroke="white" stroke-width="1.26926"/>
<path d="M6.47391 5.27161V11.9516" stroke="white" stroke-width="1.26685"/>
<path d="M8.34418 5.27206V7.54103H10.6869L12.3863 13.289H13.9165L11.4863 5.27206H8.34418Z" fill="white"/>
<path d="M9.04028 9.99994V18.9486" stroke="white" stroke-width="1.46628"/>
<defs>
<filter id="filter0_d_0_1" x="-30" y="-3" width="601.078" height="40.9488" filterUnits="userSpaceOnUse" color-interpolation-filters="sRGB">
<feFlood flood-opacity="0" result="BackgroundImageFix"/>
<feColorMatrix in="SourceAlpha" type="matrix" values="0 0 0 0 0 0 0 0 0 0 0 0 0 0 0 0 0 0 127 0" result="hardAlpha"/>
<feOffset dy="4"/>
<feGaussianBlur stdDeviation="2"/>
<feComposite in2="hardAlpha" operator="out"/>
<feColorMatrix type="matrix" values="0 0 0 0 0 0 0 0 0 0 0 0 0 0 0 0 0 0 0.25 0"/>
<feBlend mode="normal" in2="BackgroundImageFix" result="effect1_dropShadow_0_1"/>
<feBlend mode="normal" in="SourceGraphic" in2="effect1_dropShadow_0_1" result="shape"/>
</filter>
<filter id="filter1_d_0_1" x="-34.2372" y="-9.58976" width="609.552" height="49.4232" filterUnits="userSpaceOnUse" color-interpolation-filters="sRGB">
<feFlood flood-opacity="0" result="BackgroundImageFix"/>
<feColorMatrix in="SourceAlpha" type="matrix" values="0 0 0 0 0 0 0 0 0 0 0 0 0 0 0 0 0 0 127 0" result="hardAlpha"/>
<feOffset dy="1.64744"/>
<feGaussianBlur stdDeviation="4.1186"/>
<feComposite in2="hardAlpha" operator="out"/>
<feColorMatrix type="matrix" values="0 0 0 0 0 0 0 0 0 0 0 0 0 0 0 0 0 0 0.1 0"/>
<feBlend mode="normal" in2="BackgroundImageFix" result="effect1_dropShadow_0_1"/>
<feBlend mode="normal" in="SourceGraphic" in2="effect1_dropShadow_0_1" result="shape"/>
</filter>
</defs>
</svg>
