<svg width="16" height="16" viewBox="0 0 8 8" fill="none" xmlns="http://www.w3.org/2000/svg">
<g clip-path="url(#clip0_1_161)">
<path d="M3.9753 2.14366C3.04963 2.14366 2.30299 2.88645 2.30299 3.80735C2.30299 4.72824 3.04963 5.47103 3.9753 5.47103C4.90096 5.47103 5.6476 4.72824 5.6476 3.80735C5.6476 2.88645 4.90096 2.14366 3.9753 2.14366ZM3.9753 4.88896C3.37711 4.88896 2.88808 4.4039 2.88808 3.80735C2.88808 3.21079 3.37565 2.72573 3.9753 2.72573C4.57494 2.72573 5.06251 3.21079 5.06251 3.80735C5.06251 4.4039 4.57348 4.88896 3.9753 4.88896ZM6.10606 2.07561C6.10606 2.29135 5.93141 2.46365 5.71601 2.46365C5.49914 2.46365 5.32595 2.2899 5.32595 2.07561C5.32595 1.86131 5.5006 1.68756 5.71601 1.68756C5.93141 1.68756 6.10606 1.86131 6.10606 2.07561ZM7.21366 2.46945C7.18891 1.94963 7.06957 1.48919 6.68679 1.10983C6.30546 0.730466 5.84263 0.611734 5.32013 0.585671C4.78161 0.555265 3.16752 0.555265 2.62901 0.585671C2.10796 0.610286 1.64513 0.729018 1.26235 1.10838C0.879567 1.48774 0.761676 1.94819 0.735478 2.468C0.704914 3.00374 0.704914 4.60951 0.735478 5.14525C0.760221 5.66506 0.879567 6.1255 1.26235 6.50486C1.64513 6.88423 2.10651 7.00296 2.62901 7.02902C3.16752 7.05943 4.78161 7.05943 5.32013 7.02902C5.84263 7.00441 6.30546 6.88567 6.68679 6.50486C7.06811 6.1255 7.18746 5.66506 7.21366 5.14525C7.24422 4.60951 7.24422 3.00519 7.21366 2.46945ZM6.51795 5.72008C6.40443 6.00388 6.18466 6.22252 5.89794 6.3369C5.46858 6.50631 4.44977 6.46722 3.9753 6.46722C3.50082 6.46722 2.48055 6.50486 2.05265 6.3369C1.76739 6.22396 1.54762 6.00532 1.43264 5.72008C1.26235 5.29294 1.30165 4.27938 1.30165 3.80735C1.30165 3.33532 1.2638 2.32031 1.43264 1.89461C1.54616 1.61082 1.76593 1.39218 2.05265 1.27779C2.48201 1.10838 3.50082 1.14747 3.9753 1.14747C4.44977 1.14747 5.47004 1.10983 5.89794 1.27779C6.1832 1.39073 6.40297 1.60937 6.51795 1.89461C6.68824 2.32176 6.64894 3.33532 6.64894 3.80735C6.64894 4.27938 6.68824 5.29438 6.51795 5.72008Z" fill="white"/>
</g>
<defs>
<clipPath id="clip0_1_161">
<rect width="6.58976" height="7.41348" fill="white" transform="translate(0.731049 0.101807)"/>
</clipPath>
</defs>
</svg>
