<svg width="25" height="25" viewBox="0 0 9 9" fill="none" xmlns="http://www.w3.org/2000/svg">
<path d="M4.4004 0.917281C4.46204 0.727556 4.73045 0.727556 4.7921 0.917281L5.65963 3.58728C5.6872 3.67212 5.76627 3.72957 5.85548 3.72957H8.66288C8.86237 3.72957 8.94531 3.98484 8.78392 4.1021L6.51269 5.75225C6.44052 5.80469 6.41031 5.89764 6.43788 5.98249L7.30542 8.65248C7.36706 8.84221 7.14991 8.99997 6.98852 8.88272L4.71729 7.23257C4.64511 7.18013 4.54738 7.18013 4.4752 7.23257L2.20397 8.88272C2.04258 8.99997 1.82543 8.84221 1.88708 8.65248L2.75461 5.98249C2.78218 5.89764 2.75198 5.80469 2.6798 5.75225L0.408569 4.1021C0.247179 3.98484 0.330123 3.72957 0.529612 3.72957H3.33701C3.42623 3.72957 3.50529 3.67212 3.53286 3.58728L4.4004 0.917281Z" fill="#F1CC4A"/>
</svg>
