<svg width="16" height="16" viewBox="0 0 9 7" fill="none" xmlns="http://www.w3.org/2000/svg">
<g clip-path="url(#clip0_1_151)">
<path d="M8.10314 1.62818C7.82845 1.74535 7.5371 1.82225 7.23876 1.85634C7.54951 1.67702 7.78812 1.39305 7.90047 1.0547C7.60506 1.22348 7.28186 1.3424 6.94483 1.40632C6.67029 1.12472 6.27919 0.94873 5.84632 0.94873C5.01518 0.94873 4.34132 1.59751 4.34132 2.39769C4.34132 2.51127 4.35464 2.62185 4.38029 2.72792C3.12954 2.66748 2.02063 2.09063 1.27834 1.21397C1.14883 1.42797 1.07461 1.67691 1.07461 1.94242C1.07461 2.44514 1.34032 2.88863 1.74412 3.14849C1.50513 3.14128 1.2714 3.07913 1.06244 2.96723C1.06235 2.9733 1.06235 2.97937 1.06235 2.98546C1.06235 3.68751 1.5811 4.27317 2.26955 4.40628C2.04793 4.46431 1.81547 4.4728 1.58993 4.43111C1.78142 5.00678 2.33723 5.42568 2.99575 5.43741C2.4807 5.82602 1.83177 6.05768 1.12671 6.05768C1.00521 6.05768 0.88544 6.05082 0.7677 6.03743C1.43371 6.44856 2.22476 6.68844 3.07464 6.68844C5.84282 6.68844 7.35653 4.4805 7.35653 2.56573C7.35653 2.50288 7.3551 2.4404 7.35217 2.37827C7.6468 2.17319 7.9011 1.91919 8.10314 1.62818Z" fill="white"/>
</g>
<defs>
<clipPath id="clip0_1_151">
<rect width="7.41348" height="5.76604" fill="white" transform="translate(0.78067 0.925903)"/>
</clipPath>
</defs>
</svg>
